# xmcd
# 
# Track frame offsets:
#     150
#     1656
#     21569
#     40431
#     57010
#     77559
#     94067
#     115822
#     135739
#     150023
#     151186
#     166087
#     187026
#     190437
#     207125
#     221242
#     241416
#     258114
#     276630
# 
# Disc length: 4437
# 
# Revision: 1
# Processed by: cddbd v1.5.2PL0 Copyright (c) Steve Scherf et al.
# Submitted via: BonkEnc v1.0.8
# 
DISCID=fc115313
DTITLE=Various Artist - Power Of Soul: A Tribute To Jimi Hendrix
DYEAR=2004
DGENRE=Rock
TTITLE0=James "Al" Hendrix - Gratitude
TTITLE1=Musiq - Are You Experienced?
TTITLE2=Santana - Spanish Castle Magic
TTITLE3=Prince - Purple House
TTITLE4=Sting - The Wind Cries Mary
TTITLE5=Earth Wind and Fire - Voodoo Child(Slight Return)
TTITLE6=Bootsy Collins featuring George Clinton and the P-Funk All-Stars - Power Of Soul
TTITLE7=Eric Clapton - Burning Of The Midnight Lamp
TTITLE8=Lenny Kravitz - Have You Ever Been(To Electric Ladyland)
TTITLE9=James "Al" Hendrix - 30 Years
TTITLE10=Devoted Spirits featuring George Duke - Who Knows
TTITLE11=Robert Randolph and The Family Band - Purple Haze
TTITLE12=Velvert Turner - Going Home
TTITLE13=Chaka Khan and Kenny Olson - Little Wing
TTITLE14=Sounds Of Blackness - Castles Made Of Sand
TTITLE15=Eric Gales - May This Be Love
TTITLE16=Cee-Lo - Foxy Lady
TTITLE17=John Lee Hooker - Red House
TTITLE18=Stevie Ray Vaughan and Double Trouble - Little Wing,3rd Stone From The Sun
EXTD=YEAR: 2004
EXTT0=
EXTT1=
EXTT2=
EXTT3=
EXTT4=
EXTT5=
EXTT6=
EXTT7=
EXTT8=
EXTT9=
EXTT10=
EXTT11=
EXTT12=
EXTT13=
EXTT14=
EXTT15=
EXTT16=
EXTT17=
EXTT18=
PLAYORDER=
